<?xml version="1.0" standalone="no"?>
<!DOCTYPE svg PUBLIC "-//W3C//DTD SVG 20010904//EN"
 "http://www.w3.org/TR/2001/REC-SVG-20010904/DTD/svg10.dtd">
<svg version="1.0" xmlns="http://www.w3.org/2000/svg"
 width="6912.000000pt" height="3456.000000pt" viewBox="0 0 6912.000000 3456.000000"
 preserveAspectRatio="xMidYMid meet">

<g transform="translate(0.000000,3456.000000) scale(0.100000,-0.100000)"
fill="#000000" stroke="none">
<path d="M9792 25715 c-29 -13 -372 -216 -761 -449 -519 -312 -718 -436 -745
-467 -75 -82 -70 -40 -76 -776 l-5 -663 -1520 -886 c-836 -487 -1532 -892
-1547 -900 -27 -14 -39 -8 -675 373 -472 282 -663 391 -704 402 -107 28 -95
34 -896 -446 -400 -240 -746 -454 -769 -475 -23 -21 -51 -61 -63 -88 -21 -50
-21 -52 -19 -832 l3 -783 28 -47 c15 -26 44 -60 64 -75 20 -15 322 -199 672
-409 l636 -381 0 -1534 0 -1534 -644 -387 c-355 -213 -660 -402 -679 -420 -19
-18 -45 -55 -58 -83 l-24 -50 0 -765 c0 -496 4 -778 10 -802 26 -92 26 -92
820 -569 514 -309 760 -452 794 -460 63 -15 132 -6 193 24 26 14 326 192 666
396 l619 371 1546 -903 1547 -903 5 -659 c5 -646 5 -661 26 -706 12 -25 37
-61 56 -80 33 -33 1444 -886 1514 -915 48 -20 160 -18 209 5 61 28 1413 838
1472 882 36 27 59 55 80 96 l28 58 5 659 5 659 1548 904 1548 904 650 -390
c357 -215 667 -395 687 -401 51 -14 100 -13 154 4 45 13 1433 840 1512 901 22
17 53 54 68 84 l28 53 0 777 0 776 -24 50 c-12 28 -36 64 -53 80 -16 17 -321
205 -676 418 l-647 388 0 1537 0 1538 642 384 c353 211 656 397 674 412 18 16
44 52 58 80 l26 52 0 775 0 776 -24 51 c-13 28 -39 66 -57 83 -58 54 -1474
899 -1537 917 -114 33 -100 40 -829 -397 l-653 -392 -1192 695 c-656 383
-1354 789 -1550 904 l-357 208 -3 660 c-3 650 -3 662 -24 707 -12 25 -37 61
-56 80 -37 37 -1471 898 -1527 917 -58 20 -140 15 -199 -13z m546 -845 c232
-139 419 -256 415 -260 -21 -19 -838 -503 -849 -503 -12 0 -855 506 -850 510
13 13 851 511 855 509 3 -2 196 -117 429 -256z m-1115 -1025 l397 -238 0 -373
0 -373 -272 163 c-150 89 -339 202 -420 250 l-148 89 0 374 0 375 23 -14 c12
-8 201 -122 420 -253z m1807 -109 l0 -373 -397 -238 c-219 -131 -408 -245
-420 -253 l-23 -14 0 373 0 374 418 252 c229 138 418 252 420 252 1 1 2 -167
2 -373z m-1969 -1202 l559 -335 0 -349 0 -349 -32 -5 c-18 -3 -84 -10 -147
-16 -540 -52 -1136 -246 -1631 -531 -597 -343 -1127 -847 -1471 -1401 -38 -62
-73 -113 -78 -113 -4 0 -202 122 -439 270 l-432 270 0 546 0 546 1547 901
c851 496 1552 902 1556 902 5 0 260 -151 568 -336z m3817 -568 l1542 -898 0
-547 0 -546 -417 -260 c-230 -142 -427 -265 -439 -272 -19 -12 -24 -6 -89 95
-297 465 -695 883 -1145 1202 -230 163 -585 355 -865 468 -348 140 -801 250
-1135 277 -41 3 -90 8 -107 11 l-33 5 0 349 0 349 558 335 c306 185 564 334
573 333 8 -1 709 -406 1557 -901z m-8765 -472 c227 -136 418 -252 425 -259 10
-9 -74 -64 -407 -263 -231 -139 -425 -252 -431 -252 -14 0 -850 501 -850 509
1 5 840 511 848 511 2 0 189 -111 415 -246z m12438 -16 l419 -251 -422 -253
c-233 -140 -427 -254 -433 -255 -19 -2 -854 506 -846 514 26 26 838 505 849
502 8 -3 202 -118 433 -257z m-6271 -553 c1216 -135 2234 -811 2835 -1883 388
-691 538 -1570 404 -2370 -107 -642 -404 -1280 -827 -1772 -952 -1108 -2457
-1550 -3852 -1129 -1318 397 -2310 1520 -2545 2881 -42 244 -50 348 -50 663 0
323 13 457 71 725 191 890 710 1683 1449 2213 419 301 890 509 1387 612 150
30 214 41 413 64 123 15 568 12 715 -4z m-7280 -455 l409 -245 1 -373 c0 -205
-3 -371 -7 -369 -5 2 -194 115 -420 251 l-413 247 0 370 c0 241 3 369 10 367
5 -1 194 -113 420 -248z m1820 -122 l-1 -373 -409 -245 c-226 -135 -415 -246
-420 -248 -7 -2 -10 126 -10 367 l0 370 418 250 c229 138 418 251 420 251 1 0
2 -168 2 -372z m10615 109 l390 -235 3 -372 c1 -245 -1 -371 -8 -368 -5 1
-194 113 -420 248 l-409 245 -1 373 0 373 28 -15 c15 -8 203 -120 417 -249z
m1803 -109 l-3 -372 -380 -229 c-209 -125 -397 -237 -417 -248 l-38 -19 0 372
1 373 412 247 c227 136 415 247 420 248 4 0 6 -167 5 -372z m-11673 -1148
c231 -145 424 -267 429 -271 5 -4 -16 -74 -47 -156 -188 -502 -271 -959 -270
-1493 1 -533 88 -1023 264 -1480 28 -74 52 -143 53 -153 1 -14 -111 -89 -443
-297 -405 -255 -446 -278 -466 -267 -12 7 -266 158 -564 337 l-541 325 2 1535
3 1535 560 336 c497 298 562 335 580 324 11 -7 209 -130 440 -275z m9738 -70
l526 -315 1 -1535 0 -1535 -557 -334 c-306 -184 -562 -334 -568 -334 -9 0
-869 535 -888 553 -5 4 15 70 44 146 372 989 367 2073 -14 3042 -24 61 -36
106 -31 112 5 4 207 132 449 283 l440 275 36 -21 c20 -12 273 -164 562 -337z
m-11176 -4132 c232 -139 422 -255 422 -258 0 -9 -848 -512 -857 -509 -21 8
-842 504 -842 509 0 7 832 508 845 509 5 1 200 -113 432 -251z m12414 1 c230
-139 419 -255 419 -259 0 -8 -833 -510 -846 -510 -11 0 -853 504 -853 510 0 7
841 510 852 510 5 0 197 -113 428 -251z m-10082 -165 c462 -655 1116 -1173
1861 -1474 399 -161 792 -255 1233 -295 l67 -7 0 -351 -1 -352 -563 -336 -564
-336 -1548 902 -1549 903 0 548 0 549 435 272 434 272 62 -97 c34 -53 94 -142
133 -198z m7560 1 l400 -250 -2 -549 -2 -549 -1549 -902 -1548 -903 -562 337
-561 337 -3 352 c-2 278 0 352 10 352 7 0 74 7 150 15 962 102 1853 529 2543
1220 225 224 419 465 573 712 l77 122 37 -22 c20 -12 217 -134 437 -272z
m-11019 -855 l409 -245 1 -373 c0 -205 -3 -371 -7 -369 -5 2 -194 115 -420
251 l-413 247 0 370 c0 241 3 369 10 367 5 -1 194 -113 420 -248z m1820 -122
l-1 -373 -409 -245 c-226 -135 -415 -246 -420 -248 -7 -2 -10 126 -10 367 l0
370 418 250 c229 138 418 251 420 251 1 0 2 -168 2 -372z m10598 118 l412
-247 0 -370 c0 -241 -3 -369 -10 -367 -5 2 -194 113 -420 248 l-409 245 -1
373 c0 205 3 371 8 369 4 -2 193 -115 420 -251z m1820 -118 l-3 -372 -413
-248 c-228 -136 -415 -248 -418 -248 -2 0 -4 168 -4 373 l1 372 412 247 c227
136 415 247 420 248 4 0 6 -167 5 -372z m-6903 -2248 c231 -139 421 -253 423
-255 2 -2 -183 -115 -410 -251 -227 -136 -420 -252 -428 -257 -11 -7 -124 57
-443 248 l-429 257 429 258 c235 141 430 256 433 255 3 -2 194 -116 425 -255z
m-1112 -1025 l397 -238 0 -373 0 -373 -272 163 c-150 89 -339 202 -420 250
l-148 89 0 374 0 375 23 -14 c12 -8 201 -122 420 -253z m1807 -109 l0 -373
-397 -238 c-219 -131 -408 -245 -420 -253 l-23 -14 0 373 0 374 418 252 c229
138 418 252 420 252 1 1 2 -167 2 -373z"/>
<path d="M9750 20379 c-254 -12 -471 -48 -718 -120 -373 -109 -763 -314 -1077
-565 -533 -427 -931 -1064 -1080 -1729 -57 -255 -69 -368 -69 -665 -1 -299 7
-389 56 -634 95 -480 304 -929 614 -1321 137 -173 384 -413 557 -542 309 -230
629 -394 967 -496 580 -175 1188 -179 1770 -12 553 159 1093 505 1472 943 417
480 659 1020 750 1672 19 144 17 592 -5 750 -24 173 -61 347 -107 504 -156
533 -490 1059 -901 1422 -234 206 -419 332 -678 463 -396 200 -799 309 -1196
326 -71 3 -148 7 -170 8 -22 2 -105 0 -185 -4z m462 -584 c293 -39 556 -118
813 -245 250 -124 441 -258 639 -450 421 -408 676 -917 757 -1510 20 -146 18
-529 -4 -670 -119 -771 -550 -1417 -1214 -1818 -292 -176 -617 -290 -970 -339
-145 -20 -485 -22 -628 -4 -573 72 -1083 319 -1485 721 -396 394 -639 878
-725 1440 -23 150 -31 449 -16 595 50 483 216 910 504 1294 82 110 337 371
444 454 364 286 798 468 1268 532 131 18 480 18 617 0z"/>
<path d="M9859 19249 c-26 -4 -57 -13 -70 -19 -76 -41 -1463 -875 -1487 -894
-15 -14 -41 -48 -57 -78 l-30 -53 0 -925 0 -925 27 -52 c15 -28 47 -67 70 -86
24 -19 368 -229 766 -467 656 -392 728 -433 785 -442 50 -9 72 -8 113 4 30 9
340 189 786 456 573 344 745 452 773 484 68 80 66 44 63 1049 l-3 904 -29 52
c-15 28 -40 62 -55 76 -23 22 -1398 850 -1479 891 -45 23 -117 33 -173 25z
m479 -869 c232 -139 419 -256 415 -260 -21 -19 -838 -503 -849 -503 -12 0
-855 506 -850 510 13 13 851 511 855 509 3 -2 196 -117 429 -256z m-1130
-1014 l412 -247 0 -514 0 -514 -272 163 c-150 89 -339 202 -420 250 l-148 89
0 514 c0 283 3 512 8 510 4 -2 193 -115 420 -251z m1822 -260 l0 -513 -397
-238 c-219 -131 -408 -245 -420 -253 l-23 -14 0 514 0 514 418 252 c229 138
418 251 420 252 1 0 2 -231 2 -514z"/>
<path d="M42760 17030 l0 -6570 1215 0 1215 0 0 6570 0 6570 -1215 0 -1215 0
0 -6570z"/>
<path d="M47240 17030 l0 -6570 1215 0 1215 0 0 6570 0 6570 -1215 0 -1215 0
0 -6570z"/>
<path d="M20647 23244 c-4 -4 -7 -2882 -7 -6396 l0 -6389 2693 4 c2871 4 2762
2 3187 52 1204 139 2307 568 3215 1249 1297 973 2129 2485 2324 4227 34 304
45 505 45 864 0 358 -11 560 -45 861 -145 1298 -661 2495 -1476 3426 -1013
1157 -2517 1898 -4178 2058 -115 11 -273 25 -350 31 -159 14 -5395 26 -5408
13z m5423 -2097 c615 -75 1066 -222 1540 -499 546 -321 998 -824 1296 -1443
255 -529 399 -1077 466 -1775 18 -183 18 -966 0 -1150 -69 -722 -214 -1271
-477 -1805 -282 -573 -664 -1020 -1150 -1344 -448 -300 -969 -487 -1555 -560
-304 -38 -441 -41 -1676 -41 l-1204 0 0 4320 0 4321 1313 -4 c1141 -3 1330 -6
1447 -20z"/>
<path d="M58610 16855 l0 -6395 4070 0 4070 0 0 1035 0 1035 -2740 0 -2740 0
0 1680 0 1680 2130 0 2130 0 0 1000 0 1000 -2130 0 -2130 0 0 1640 0 1640
2740 0 2740 0 0 1040 0 1040 -4070 0 -4070 0 0 -6395z"/>
<path d="M37065 19709 c-1062 -47 -2036 -354 -2875 -904 -254 -167 -677 -503
-667 -530 16 -39 436 -780 472 -830 63 -89 229 -244 304 -284 109 -57 171 -72
327 -78 142 -5 210 1 344 34 98 23 178 61 490 232 510 278 804 393 1150 446
162 26 573 32 722 11 541 -76 894 -377 1043 -892 67 -231 99 -576 93 -999 l-3
-210 -198 -6 c-971 -32 -1822 -147 -2522 -339 -942 -259 -1606 -607 -2055
-1077 -239 -251 -386 -496 -495 -828 -79 -239 -105 -410 -105 -685 1 -713 211
-1285 634 -1719 408 -418 999 -663 1746 -722 183 -14 624 -6 818 16 549 61
1022 217 1482 490 225 134 486 323 774 564 93 77 171 139 173 138 2 -2 50
-144 108 -315 57 -172 122 -349 145 -395 76 -156 176 -256 305 -302 157 -57
165 -57 893 -62 l673 -4 -4 3008 c-3 2742 -4 3021 -20 3159 -37 328 -93 591
-187 875 -175 526 -434 947 -806 1309 -249 242 -481 403 -809 561 -442 212
-840 308 -1410 339 -201 11 -279 11 -540 -1z m1405 -6152 c0 -582 -2 -706 -14
-722 -24 -35 -288 -272 -396 -356 -370 -289 -690 -430 -1125 -495 -157 -24
-525 -29 -670 -10 -413 54 -661 214 -775 498 -83 209 -100 517 -38 717 29 95
100 227 162 303 94 113 265 238 461 336 407 202 1153 348 2110 412 88 6 178
12 200 13 22 2 50 4 63 5 l22 2 0 -703z"/>
<path d="M51650 15800 l0 -1000 2325 0 2325 0 0 1000 0 1000 -2325 0 -2325 0
0 -1000z"/>
</g>
</svg>
